<svg id="Layer_1" data-name="Layer 1" xmlns="http://www.w3.org/2000/svg" viewBox="0 0 426.12 149"><defs><style>.cls-1{fill:#797979;}.cls-2,.cls-3{fill:none;stroke-miterlimit:10;stroke-width:4px;}.cls-2{stroke:#1992ae;}.cls-3{stroke:#28a990;}</style></defs><title>Mesa de trabajo 3</title><path id="_Trazado_" data-name="&lt;Trazado&gt;" class="cls-1" d="M65.08,30.88v59.3a1,1,0,0,0,.87.6h27s.68-.14.77-1.66V79.58s-.08-.58-.84-.55H78s-1.63-.19-1.73-1.26V30.88a3.14,3.14,0,0,0-3-3H67.18A2.81,2.81,0,0,0,65.08,30.88Z"/><path id="_Trazado_2" data-name="&lt;Trazado&gt;" class="cls-1" d="M183.49,48.65s-2.37.09-4-4.38a8.15,8.15,0,0,0-7.06-5.12s-10.67-1.49-10.92,8.21V70.81s.58,8.85,7.72,9.28c0,0,8.49,1.13,10.3-6,0,0,1.21-5.07,3.78-5h6.38s3.17-.1,2.28,5.16c0,0-1.9,17-16.2,17.53h-8.66s-11.92.07-16-12.89a36.81,36.81,0,0,1-1.81-12.18V49.42s0-10.26,4.53-15.4c0,0,5.33-6.52,12.89-6.51h7.37s16.33.35,18.12,16.61c0,0,.53,4.17-2.77,4.56Z"/><path id="_Trazado_3" data-name="&lt;Trazado&gt;" class="cls-1" d="M198.29,30.54V68.68s-.62,18.41,12,21.71c0,0,12.88,3.76,21.48-.85,0,0,10.9-4.88,10.34-21.51V30.54s0-3.07-2.58-3.27h-7a3.05,3.05,0,0,0-3,3.26v41s-.28,7.4-7.69,8.23h-3s-7.48-.34-7.8-7.59V31.38s.25-3.88-2.17-4.12h-8.27S198.23,27.27,198.29,30.54Z"/><path id="_Trazado_4" data-name="&lt;Trazado&gt;" class="cls-1" d="M253.24,30.88V87.45s-.16,3.14,2,3.41h7.45s2,0,1.85-3V31.39s0-3.38-2.59-3.54h-6.39A2.89,2.89,0,0,0,253.24,30.88Z"/><path id="_Trazado_5" data-name="&lt;Trazado&gt;" class="cls-1" d="M277.1,31.37V88.76a2.23,2.23,0,0,0,2.36,2.1h6.89s2,0,2-2.75V65.61a2,2,0,0,1,1.85-2h21.2a1.94,1.94,0,0,0,2-2V54.78s.14-2.41-2-2.41H290.81a2.24,2.24,0,0,1-1.82-2.5V42a2.21,2.21,0,0,1,1.82-2.37h20.45s2.12.19,2.12-2.41V30.85a2.45,2.45,0,0,0-2.46-2.6H279.52A2.84,2.84,0,0,0,277.1,31.37Z"/><path class="cls-1" d="M148.76,86.55l-18.68-56s-.85-3.09-3.37-3.71c0,0-5.34-.89-7.51.4,0,0-1.49.63-2.46,3.3l-18,57.3s-1.09,2.8,1,2.9h8s2.23,0,3.4-3.38L122.91,50a.5.5,0,0,1,.94,0L137.5,89.39a2.35,2.35,0,0,0,2.24,1.4h8S150.12,90.61,148.76,86.55Z"/><path class="cls-1" d="M360.62,86.55l-18.68-56s-.85-3.09-3.37-3.71c0,0-5.34-.89-7.5.4,0,0-1.49.63-2.46,3.3l-18,57.3s-1.09,2.8,1,2.9h8s2.23,0,3.4-3.38L334.77,50a.5.5,0,0,1,.94,0l13.65,39.37a2.35,2.35,0,0,0,2.24,1.4h8S362,90.61,360.62,86.55Z"/><line class="cls-2" x1="5.04" y1="126.8" x2="161.68" y2="126.8"/><line class="cls-3" x1="180.92" y1="126.8" x2="277.1" y2="126.8"/></svg>