<svg xmlns="http://www.w3.org/2000/svg" viewBox="0 0 138.41 109.33"><defs><style>.cls-1{fill:#1992ae;}.cls-2{fill:#010001;}</style></defs><title>Mesa de trabajo 3</title><g id="Capa_2" data-name="Capa 2"><path class="cls-1" d="M67.1,93.36A80.16,80.16,0,0,0,81.91,92.1a1.56,1.56,0,0,1,1.77.5c1,1.22-.41,3.38-.57,3.62a1.28,1.28,0,0,0-.18,1.43,1.34,1.34,0,0,0,1.17.65l.59,0c3,0,8.25-.85,16.64-4.63a2.51,2.51,0,0,1,.83-.3c11.89-2.85,19.06-13.37,21-16.53l.22-.33c.93-1.68,1.06-4,1.13-7.5,0-8.51-2-20.53-2.36-22.85l0-.16v-.16c.06-.87.09-1.8.09-2.84a33.61,33.61,0,0,1,.24-3.59c.25-2.4.44-4.3-.69-6.34-.92-1.66-5.06-5.31-10.15-8.3l-.26-.15-.17-.25c-7.47-11.21-21.38-12.86-29-12.74-3.54,0-7.37-.38-9.43.69-3.57,1.85-1.28,3.62-1.26,9.88,0,2.24-2,13.09,0,17.84s4,7.93,2.38,10.71.79,9.52,0,19-5.95.4-5.15-2.38-.4-9.91-2.49-14.58-1.47-6-.28-10.4S60.53,31.5,61.53,25.38c1.45-8.88.38-11-2.28-10.54C46.61,17,32.19,27.62,15.88,41.51l-.77.64a8.33,8.33,0,0,0-1.64,3.32c0,.39,0,.63,0,.87a30.25,30.25,0,0,1-1.06,6.4c-.75,3.2-1.59,6.83-.77,8.57.29.62,1.48,1.31,2.62,2a13.79,13.79,0,0,1,4,3l.21.26a56.38,56.38,0,0,1,5.89,10.37h0l.43.68c11.58,13,29.41,15.75,42.3,15.77"/><path class="cls-2" d="M103.88,86.6c11.92-1.42,13.74-11.51,13.74-11.11,0,0,1.23-4.43,1.72-7,1.78-9.26.46-32.4-4.69-34.47,3.44,24.39-6.41,46.83-28.05,57.48C84.52,95.87,97,87.8,100.21,87.4Z"/><path class="cls-2" d="M84.71,100.95c-.37,0-.61,0-.68,0A3.89,3.89,0,0,1,80.71,95a92,92,0,0,1-13.61,1C53.66,96,35,93,22.68,79.16l-.3-.25L22,78c-.93-2-3.32-7-5.39-9.63-.21-.26-.31-.38-.41-.51A11.92,11.92,0,0,0,13,65.54c-1.57-.91-3-1.76-3.69-3.14-1.22-2.58-.3-6.5.59-10.3a29,29,0,0,0,1-5.79c0-.18,0-.34,0-.48s0-.3,0-.4c0-2,1.95-4.8,2.57-5.34l.27-.22.5-.42c12-10.23,34.78-27.55,52.35-28.7A67.39,67.39,0,0,1,82.13,8.95c8.07-.1,22.88,1.65,31.09,13.67,5,3,9.58,6.82,10.87,9.15h0c1.53,2.77,1.27,5.26,1,7.9a31.78,31.78,0,0,0-.22,3.32c0,1,0,2-.09,2.88.45,2.7,2.34,14.59,2.37,23.16-.06,3.3-.13,6.39-1.61,9-2.17,3.58-9.86,14.84-22.9,18l-.2.11C93.61,100.05,87.93,100.92,84.71,100.95ZM71.44,22.17c0,2.24-2,13.09,0,17.84s4,7.93,2.38,10.71.79,9.52,0,19-5.95.4-5.15-2.38-.4-9.91-2.49-14.58-1.47-6-.28-10.4-5.37-10.93-4.36-17.05c1.45-8.88.38-11-2.28-10.54C46.6,17,32.18,27.59,15.88,41.48l-.77.64a8.33,8.33,0,0,0-1.64,3.32c0,.39,0,.63,0,.87a30.25,30.25,0,0,1-1.06,6.4c-.75,3.2-1.59,6.83-.77,8.57.29.62,1.48,1.31,2.62,2a13.79,13.79,0,0,1,4,3l.21.26a56.38,56.38,0,0,1,5.89,10.37h0l.43.68c11.58,13,29.41,15.75,42.3,15.77A80.16,80.16,0,0,0,81.9,92.07a1.56,1.56,0,0,1,1.77.5c1,1.22-.41,3.38-.57,3.62a1.28,1.28,0,0,0-.18,1.43,1.34,1.34,0,0,0,1.17.65l.59,0c3,0,8.25-.85,16.64-4.63a2.51,2.51,0,0,1,.83-.3c11.89-2.85,19.06-13.37,21-16.53l.22-.33c.93-1.68,1.06-4,1.13-7.5,0-8.51-2-20.53-2.36-22.85l0-.16v-.16c.06-.87.09-1.8.09-2.84a33.61,33.61,0,0,1,.24-3.59c.25-2.4.44-4.3-.69-6.34-.92-1.66-5.06-5.31-10.15-8.3l-.26-.15-.17-.25c-7.47-11.21-21.38-12.86-29-12.74-3.54,0-7.37-.38-9.43.69C69.13,14.14,71.43,15.92,71.44,22.17Z"/></g></svg>